<?xml version="1.0" encoding="UTF-8"?>
<svg xmlns="http://www.w3.org/2000/svg" xmlns:xlink="http://www.w3.org/1999/xlink" width="0" height="0">
<defs>

<symbol id="laptop" viewBox="0 0 24 24" fill="none" stroke="currentColor" stroke-width="2" stroke-linecap="round" stroke-linejoin="round">
  <path d="M20 16V7a2 2 0 0 0-2-2H6a2 2 0 0 0-2 2v9m16 0H4m16 0 1.28 2.55a1 1 0 0 1-.9 1.45H3.62a1 1 0 0 1-.9-1.45L4 16"/>
</symbol>

<symbol id="moon" viewBox="0 0 24 24" fill="none" stroke="currentColor" stroke-width="2" stroke-linecap="round" stroke-linejoin="round">
  <path d="M12 3a6 6 0 0 0 9 9 9 9 0 1 1-9-9Z"/>
</symbol>

<symbol id="sun" viewBox="0 0 24 24" fill="none" stroke="currentColor" stroke-width="2" stroke-linecap="round" stroke-linejoin="round">
  <circle cx="12" cy="12" r="4"/>
  <path d="M12 2v2"/>
  <path d="M12 20v2"/>
  <path d="m4.93 4.93 1.41 1.41"/>
  <path d="m17.66 17.66 1.41 1.41"/>
  <path d="M2 12h2"/>
  <path d="M20 12h2"/>
  <path d="m6.34 17.66-1.41 1.41"/>
  <path d="m19.07 4.93-1.41 1.41"/>
</symbol>

</defs>
</svg>
